<svg xmlns="http://www.w3.org/2000/svg" xmlns:xlink="http://www.w3.org/1999/xlink" viewBox="0 0 2400 385.27"><defs><style>.a{fill:url(#a);}.b{fill:url(#b);}.c,.d,.e,.f,.g,.h,.i,.j,.k,.l,.t{fill:none;}.c,.d,.e,.f,.g,.h,.i,.j,.k,.l,.m,.n,.o,.p,.q,.r,.s,.t{stroke-miterlimit:10;}.c{stroke:url(#b);}.d,.e{stroke-width:6.31px;}.d{stroke:url(#j);}.e{stroke:url(#k);}.f,.g,.h,.i,.j,.k,.l,.m,.n,.o,.p,.q,.r,.s{stroke-width:2.1px;}.f{stroke:url(#l);}.g{stroke:url(#m);}.h{stroke:url(#n);}.i{stroke:url(#o);}.j{stroke:url(#p);}.k{stroke:url(#q);}.l{stroke:url(#r);}.m{stroke:url(#s);}.n{stroke:url(#t);}.o{stroke:url(#u);}.p{stroke:url(#v);}.q{stroke:url(#w);}.r{stroke:url(#x);}.s{stroke:url(#y);}.t{stroke:url(#z);}.u{fill:url(#aa);}</style><linearGradient id="a" x1="917.28" y1="133.98" x2="1056.29" y2="133.98" gradientUnits="userSpaceOnUse"><stop offset="0" stop-color="#be965d"/><stop offset="0.28" stop-color="#976f40"/><stop offset="0.43" stop-color="#c99b61"/><stop offset="0.56" stop-color="#f0be7b"/><stop offset="0.63" stop-color="#ffcb85"/><stop offset="0.71" stop-color="#eebc79"/><stop offset="0.87" stop-color="#c0935b"/><stop offset="1" stop-color="#976f40"/></linearGradient><linearGradient id="b" x1="1052.08" y1="133.16" x2="1683.91" y2="133.16" xlink:href="#a"/><linearGradient id="j" x1="1181.99" y1="162.21" x2="1201.73" y2="162.21" xlink:href="#a"/><linearGradient id="k" x1="1198.39" y1="278.51" x2="1284" y2="278.51" xlink:href="#a"/><linearGradient id="l" x1="1143.71" y1="248.5" x2="1159.78" y2="248.5" xlink:href="#a"/><linearGradient id="m" x1="1237.6" y1="248.58" x2="1253.83" y2="248.58" xlink:href="#a"/><linearGradient id="n" x1="1166.35" y1="249.7" x2="1176.72" y2="249.7" xlink:href="#a"/><linearGradient id="o" x1="1224.07" y1="250.14" x2="1235.08" y2="250.14" xlink:href="#a"/><linearGradient id="p" x1="1183.98" y1="250.06" x2="1189.25" y2="250.06" xlink:href="#a"/><linearGradient id="q" x1="1210.53" y1="250.14" x2="1215.69" y2="250.14" xlink:href="#a"/><linearGradient id="r" x1="1197.04" y1="250.14" x2="1199.74" y2="250.14" xlink:href="#a"/><linearGradient id="s" x1="1138.62" y1="257.36" x2="1146.03" y2="257.36" xlink:href="#a"/><linearGradient id="t" x1="1162.39" y1="257.36" x2="1169.79" y2="257.36" xlink:href="#a"/><linearGradient id="u" x1="1181.23" y1="257.36" x2="1188.63" y2="257.36" xlink:href="#a"/><linearGradient id="v" x1="1194.39" y1="258.23" x2="1201.79" y2="258.23" xlink:href="#a"/><linearGradient id="w" x1="1212.06" y1="258.23" x2="1219.46" y2="258.23" xlink:href="#a"/><linearGradient id="x" x1="1231.99" y1="258.23" x2="1239.4" y2="258.23" xlink:href="#a"/><linearGradient id="y" x1="1251.22" y1="257.36" x2="1258.62" y2="257.36" xlink:href="#a"/><linearGradient id="z" x1="0" y1="294.68" x2="2400" y2="294.68" xlink:href="#a"/><linearGradient id="aa" x1="1082.51" y1="410.23" x2="1499.68" y2="410.23" gradientUnits="userSpaceOnUse"><stop offset="0" stop-color="#fff"/><stop offset="1" stop-color="#231f20"/></linearGradient></defs><title>logo-flat-golden</title><path class="a" d="M956.73,133a100.69,100.69,0,0,0,16.72-13.5q6.12-6.39,19.18-20.49t15.63-18.74q2.57-4.65,2.57-6.72,0-2.52-2.9-4.54a16.45,16.45,0,0,0-6.83-2.67q-4.36-.66-4.37-2.52c0-1.31,1.2-2,3.61-2,.51,0,1.31,0,2.4-.1q4.05-.22,24.26-.22,13.89,0,19.35.27c3.64.18,5.46.86,5.46,2s-1,2-3.06,2.3a51,51,0,0,0-17.65,5.52q-7.49,4.1-23.22,19.23a308.06,308.06,0,0,0-27.1,29.34q12.65,0,21.26,3.56A31.4,31.4,0,0,1,1016.37,136q5.73,8.7,9.87,29.49,7.23,34.9,25.89,36.44,4.15.31,4.16,2.24c0,1.06-.65,1.59-2,1.59l-10.06-.21q-22.29,0-25.57.42a37.24,37.24,0,0,1-6.94-14q-1.59-6.87-4.32-24.15A116.2,116.2,0,0,0,999.52,140q-5.52-12.78-17.21-12.78-7.77,0-16.07,5.08t-9.62,7.54q-1.3,2.46-1.31,28.91,0,18.57,1.15,22.95a11.37,11.37,0,0,0,5,6.88,23.33,23.33,0,0,0,10.43,3.17q3.95.44,3.94,2.41c0,1.24-.91,1.85-2.73,1.85l-1.32-.07q-3.06-.15-22.29-.14-23.17,0-26.23.43a17.2,17.2,0,0,1-2.29.22c-1.68,0-2.52-.65-2.52-2,0-1.16,1-1.89,3.06-2.18q5.79-.76,8.69-3.23a10.93,10.93,0,0,0,3.72-5.68q.81-3.23,2.18-21.58t1.37-30.6q0-16.18-.33-27.43t-1.31-24.54q-1-13.28-2.19-16a9.62,9.62,0,0,0-3.39-4.16q-2.17-1.47-10.27-2.46c-1.82-.22-2.73-.87-2.73-2q0-2.41,5-2.41l8.85-.11,38.8-.43c2,0,2.95.6,2.95,1.82a1.6,1.6,0,0,1-1,1.54,28.85,28.85,0,0,1-6,1.12,28.94,28.94,0,0,0-6.44,1.25,6.73,6.73,0,0,0-2.63,2.84q-1.3,2.25-1.31,7.38Q955.53,90.06,956.73,133Z" transform="translate(-42.57 -56.67)"/><path class="b" d="M1127.72,57.17c38.28,0,72.52,29.32,72.52,73.86,0,48.12-32.68,78.11-73.86,78.11-43,0-74.3-32.67-74.3-74.75C1052.08,94.33,1080.5,57.17,1127.72,57.17Zm-4.47,8.28c-25.07,0-47.9,21-47.9,62.9,0,41.62,22.83,72.29,54.61,72.29,27.09,0,47.45-20.15,47.45-63.34C1177.41,90.3,1152.57,65.45,1123.25,65.45Z" transform="translate(-42.57 -56.67)"/><path class="b" d="M1299.84,94.33C1296,79.55,1289.77,65,1268.73,65c-17.46,0-23.5,12.75-23.5,24.39,0,15.45,9.85,23.28,28.42,32.9,26.86,13.88,38.5,24.17,38.5,45.44,0,23.5-20.37,41.4-49.24,41.4-13.43,0-25.07-3.8-34.24-7.38-1.79-6.27-4.48-21.49-6.05-33.58l6.94-1.79c4.48,15,14.33,34.47,37.6,34.47,16.12,0,26-11.19,26-25.74,0-17.23-9.18-24.17-28.88-34.91-23.5-12.76-36.7-23.5-36.7-44.32,0-19.92,16.56-38.72,46.1-38.72,12.54,0,24.85,3.36,29.55,4.25.89,8.06,1.79,17,3.58,31.56Z" transform="translate(-42.57 -56.67)"/><path class="b" d="M1459,205.79v-6.27c18.35-1.79,19-3.13,18.8-27.08l.22-91.32c-18.35,41-47.89,105-55.73,124.67h-5.82c-7.6-20.37-32.9-81.92-49.91-122.43-3.8,78.33-4,96-4,100.27.22,12.53,5.81,14.32,21,15.89v6.27h-53v-6.27c13-1.34,18.35-4,20.14-16.12,1.35-9.84,1.57-17.9,7.39-99.59.89-11.64-1.34-15.45-21-17.24V60.31h38.94l49.47,113.47,53-113.47h39.17v6.26c-19.25,2.24-21.71,4.25-21.26,19.92l.89,86c.9,23.95,1.57,25.06,21.27,27.08v6.27Z" transform="translate(-42.57 -56.67)"/><path class="b" d="M1611.39,57.17c38.28,0,72.52,29.32,72.52,73.86,0,48.12-32.68,78.11-73.86,78.11-43,0-74.31-32.67-74.31-74.75C1535.74,94.33,1564.17,57.17,1611.39,57.17Zm-4.47,8.28c-25.07,0-47.9,21-47.9,62.9,0,41.62,22.83,72.29,54.61,72.29,27.08,0,47.45-20.15,47.45-63.34C1661.08,90.3,1636.24,65.45,1606.92,65.45Z" transform="translate(-42.57 -56.67)"/><path class="c" d="M1127.72,57.17c38.28,0,72.52,29.32,72.52,73.86,0,48.12-32.68,78.11-73.86,78.11-43,0-74.3-32.67-74.3-74.75C1052.08,94.33,1080.5,57.17,1127.72,57.17Zm-4.47,8.28c-25.07,0-47.9,21-47.9,62.9,0,41.62,22.83,72.29,54.61,72.29,27.09,0,47.45-20.15,47.45-63.34C1177.41,90.3,1152.57,65.45,1123.25,65.45Z" transform="translate(-42.57 -56.67)"/><path class="c" d="M1299.84,94.33C1296,79.55,1289.77,65,1268.73,65c-17.46,0-23.5,12.75-23.5,24.39,0,15.45,9.85,23.28,28.42,32.9,26.86,13.88,38.5,24.17,38.5,45.44,0,23.5-20.37,41.4-49.24,41.4-13.43,0-25.07-3.8-34.24-7.38-1.79-6.27-4.48-21.49-6.05-33.58l6.94-1.79c4.48,15,14.33,34.47,37.6,34.47,16.12,0,26-11.19,26-25.74,0-17.23-9.18-24.17-28.88-34.91-23.5-12.76-36.7-23.5-36.7-44.32,0-19.92,16.56-38.72,46.1-38.72,12.54,0,24.85,3.36,29.55,4.25.89,8.06,1.79,17,3.58,31.56Z" transform="translate(-42.57 -56.67)"/><path class="c" d="M1459,205.79v-6.27c18.35-1.79,19-3.13,18.8-27.08l.22-91.32c-18.35,41-47.89,105-55.73,124.67h-5.82c-7.6-20.37-32.9-81.92-49.91-122.43-3.8,78.33-4,96-4,100.27.22,12.53,5.81,14.32,21,15.89v6.27h-53v-6.27c13-1.34,18.35-4,20.14-16.12,1.35-9.84,1.57-17.9,7.39-99.59.89-11.64-1.34-15.45-21-17.24V60.31h38.94l49.47,113.47,53-113.47h39.17v6.26c-19.25,2.24-21.71,4.25-21.26,19.92l.89,86c.9,23.95,1.57,25.06,21.27,27.08v6.27Z" transform="translate(-42.57 -56.67)"/><path class="c" d="M1611.39,57.17c38.28,0,72.52,29.32,72.52,73.86,0,48.12-32.68,78.11-73.86,78.11-43,0-74.31-32.67-74.31-74.75C1535.74,94.33,1564.17,57.17,1611.39,57.17Zm-4.47,8.28c-25.07,0-47.9,21-47.9,62.9,0,41.62,22.83,72.29,54.61,72.29,27.08,0,47.45-20.15,47.45-63.34C1661.08,90.3,1636.24,65.45,1606.92,65.45Z" transform="translate(-42.57 -56.67)"/><line class="d" x1="1185.1" y1="122.4" x2="1198.62" y2="202.01"/><path class="e" d="M1280.85,298.34a39.66,39.66,0,1,0-79.31,0Z" transform="translate(-42.57 -56.67)"/><line class="f" x1="1159.04" y1="241.21" x2="1144.45" y2="255.79"/><line class="g" x1="1238.35" y1="241.21" x2="1253.09" y2="255.95"/><line class="h" x1="1175.86" y1="243.61" x2="1167.21" y2="255.79"/><line class="i" x1="1224.89" y1="244.33" x2="1234.26" y2="255.95"/><line class="j" x1="1188.24" y1="244.33" x2="1184.99" y2="255.79"/><line class="k" x1="1211.55" y1="244.33" x2="1214.67" y2="255.95"/><line class="l" x1="1198.69" y1="244.33" x2="1198.09" y2="255.95"/><circle class="m" cx="1142.33" cy="257.36" r="2.65"/><circle class="n" cx="1166.09" cy="257.36" r="2.65"/><circle class="o" cx="1184.93" cy="257.36" r="2.65"/><circle class="p" cx="1198.09" cy="258.23" r="2.65"/><circle class="q" cx="1215.76" cy="258.23" r="2.65"/><circle class="r" cx="1235.69" cy="258.23" r="2.65"/><circle class="s" cx="1254.92" cy="257.36" r="2.65"/><line class="t" y1="294.68" x2="2400" y2="294.68"/><path class="u" d="M1104.45,380.85c-6,.7-6.67,1.16-6.67,7.67v28.69c0,10.23-1.63,15.58-6.82,20.23a25.57,25.57,0,0,1-7.21,4.5l-1.24-2.33a13.7,13.7,0,0,0,7.75-10.23c.7-3.72.78-8.22.78-14.73V388.52c0-6.51-.7-7-7.06-7.67v-2.17h20.47Z" transform="translate(-42.57 -56.67)"/><path class="u" d="M1151,416.74c-.46,2-2.55,10-3.33,12.33H1110V426.9c7.21-.54,7.75-1.24,7.75-7.6V388.68c0-6.9-.85-7.29-6.66-7.83v-2.17h23.72c7.29,0,10.31-.08,11.24-.16.08,1.94.39,7.75.7,11.86l-2.33.39a25.74,25.74,0,0,0-2.32-5.89c-1.24-2.56-3-3.1-7.68-3.1H1127c-2.41,0-2.56.23-2.56,2.48v17.13h8.6c5.82,0,6.21-1.16,7.14-6.43h2.4v16h-2.4c-1-5.58-1.63-6.36-7.21-6.36h-8.53V420c0,5.43,1.7,5.89,5.58,6h7.21c4.73,0,5.51-.7,7.21-2.71a33.16,33.16,0,0,0,4.19-7.14Z" transform="translate(-42.57 -56.67)"/><path class="u" d="M1225.93,380.85c-5.42.77-6.2,1.39-8.29,7.75-2.56,7.75-8.76,27.45-13,41.32H1202c-4-12.09-9.23-27.05-13.26-38.53-4.5,13.34-9.07,26.59-13.1,38.53h-2.56c-3.88-13.33-8.3-27.83-12.48-41.4-2-6.28-2.87-7.13-7.91-7.67v-2.17h19.15v2.17c-5.74.62-5.89,1.47-4.81,5.35,3,10.46,6.13,20.77,9.3,31.71,4.27-12.33,8.92-25.82,12.87-38.54h2.49c4.34,13.18,8.68,25.43,13.18,38.61,3.25-10.31,7.67-24.11,9.38-30.85,1.16-4.5.54-5.51-6-6.28v-2.17h17.75Z" transform="translate(-42.57 -56.67)"/><path class="u" d="M1269.66,416.74c-.47,2-2.56,10-3.34,12.33h-37.68V426.9c7.21-.54,7.76-1.24,7.76-7.6V388.68c0-6.9-.86-7.29-6.67-7.83v-2.17h23.72c7.29,0,10.31-.08,11.24-.16.08,1.94.39,7.75.7,11.86l-2.32.39a26.18,26.18,0,0,0-2.33-5.89c-1.24-2.56-3-3.1-7.68-3.1h-7.36c-2.4,0-2.56.23-2.56,2.48v17.13h8.61c5.81,0,6.2-1.16,7.13-6.43h2.4v16h-2.4c-1-5.58-1.63-6.36-7.21-6.36h-8.53V420c0,5.43,1.71,5.89,5.58,6h7.21c4.73,0,5.51-.7,7.21-2.71a32.76,32.76,0,0,0,4.19-7.14Z" transform="translate(-42.57 -56.67)"/><path class="u" d="M1314,416.2c-.46,2.4-2.79,10.47-3.57,12.87h-36V426.9c7.06-.7,7.68-1.09,7.68-7.68V388.44c0-6.59-.78-7-7-7.59v-2.17h20.78v2.17c-6.2.62-7.06.93-7.06,7.59V420c0,4.73.62,5.81,5,5.89l6.13.08c4,0,5.12-.47,6.9-2.4a26.42,26.42,0,0,0,4.73-8Z" transform="translate(-42.57 -56.67)"/><path class="u" d="M1358,416.2c-.47,2.4-2.79,10.47-3.57,12.87h-36V426.9c7-.7,7.67-1.09,7.67-7.68V388.44c0-6.59-.77-7-7-7.59v-2.17h20.77v2.17c-6.2.62-7.05.93-7.05,7.59V420c0,4.73.62,5.81,5,5.89l6.12.08c4,0,5.12-.47,6.9-2.4a26.21,26.21,0,0,0,4.73-8Z" transform="translate(-42.57 -56.67)"/><path class="u" d="M1403.39,416.74c-.47,2-2.56,10-3.33,12.33h-37.68V426.9c7.21-.54,7.75-1.24,7.75-7.6V388.68c0-6.9-.85-7.29-6.67-7.83v-2.17h23.73c7.28,0,10.31-.08,11.24-.16.08,1.94.38,7.75.7,11.86l-2.33.39a25.71,25.71,0,0,0-2.33-5.89c-1.24-2.56-3-3.1-7.67-3.1h-7.37c-2.4,0-2.56.23-2.56,2.48v17.13h8.61c5.81,0,6.2-1.16,7.13-6.43H1395v16h-2.41c-1-5.58-1.63-6.36-7.21-6.36h-8.53V420c0,5.43,1.71,5.89,5.59,6h7.21c4.73,0,5.5-.7,7.21-2.71a33.14,33.14,0,0,0,4.18-7.14Z" transform="translate(-42.57 -56.67)"/><path class="u" d="M1454.79,429.69c-1,0-1.86-.08-2.87-.15-5.66-.39-8.68-1.86-12.09-6.67-2.87-4-5.66-8.84-8.15-12.79-1.55-2.48-2.55-2.95-6.51-2.95h-2.71V419.3c0,6.59.85,7,7,7.6v2.17h-20.7V426.9c6.44-.7,7-1,7-7.6V388.37c0-6.59-.85-6.82-7-7.52v-2.17h19.77c5.66,0,9.46.69,12.41,2.63a11.6,11.6,0,0,1,5.27,10.24c0,6.66-4.26,10.85-10,13.33,1.39,2.4,4.73,7.6,7,11.09a71.53,71.53,0,0,0,6.13,8,11.19,11.19,0,0,0,5.66,3.57Zm-28.61-25.2c4,0,6.59-.62,8.53-2.24,3-2.25,4.26-5.35,4.26-9.54,0-8.3-5.5-11.32-11.47-11.32-2.25,0-3.57.31-4.11.78-.7.54-.93,1.31-.93,3.33v19Z" transform="translate(-42.57 -56.67)"/><path class="u" d="M1499.68,380.85c-5.43.62-6.36,1.47-9.46,6.43-3.49,5.66-6.36,11-10.16,17.91a8.23,8.23,0,0,0-1.16,4.58v9.53c0,6.44.7,6.9,7.9,7.6v2.17h-22.25V426.9c7.06-.93,7.6-1.09,7.6-7.6v-10c0-1.55-.31-2.25-1.55-4.5-2.71-5-5.35-9.92-9.53-17.21-3-5.27-3.8-6.2-9.08-6.74v-2.17h19.08v2.17c-5.59.77-5.28,1.78-3.88,4.42,3.26,6,6.9,12.94,10.16,18.76,2.79-5.2,7.21-13.65,9.38-17.91,1.78-3.88,1.55-4.65-4.58-5.27v-2.17h17.53Z" transform="translate(-42.57 -56.67)"/></svg>