<svg xmlns="http://www.w3.org/2000/svg" xmlns:xlink="http://www.w3.org/1999/xlink" viewBox="0 0 3686.71 1407.14"><defs><style>.a{font-size:1064.36px;font-family:BellMT, Bell MT;}.b{fill:url(#a);}.c{fill:url(#b);}.d,.e,.f,.g,.h,.i,.j,.k,.l{fill:none;}.d,.e,.f,.g,.h,.i,.j,.k,.l,.m,.n,.o,.p,.q,.r,.s{stroke-miterlimit:10;}.d,.e{stroke-width:30px;}.d{stroke:url(#f);}.e{stroke:url(#g);}.f,.g,.h,.i,.j,.k,.l,.m,.n,.o,.p,.q,.r,.s{stroke-width:10px;}.f{stroke:url(#h);}.g{stroke:url(#i);}.h{stroke:url(#j);}.i{stroke:url(#k);}.j{stroke:url(#l);}.k{stroke:url(#m);}.l{stroke:url(#n);}.m{stroke:url(#o);}.n{stroke:url(#p);}.o{stroke:url(#q);}.p{stroke:url(#r);}.q{stroke:url(#s);}.r{stroke:url(#t);}.s{stroke:url(#u);}</style><linearGradient id="a" x1="227.27" y1="2031.74" x2="888.27" y2="2031.74" gradientUnits="userSpaceOnUse"><stop offset="0" stop-color="#be965d"/><stop offset="0.28" stop-color="#976f40"/><stop offset="0.43" stop-color="#c99b61"/><stop offset="0.56" stop-color="#f0be7b"/><stop offset="0.63" stop-color="#ffcb85"/><stop offset="0.71" stop-color="#eebc79"/><stop offset="0.87" stop-color="#c0935b"/><stop offset="1" stop-color="#976f40"/></linearGradient><linearGradient id="b" x1="868.34" y1="2027.8" x2="3872.99" y2="2027.8" xlink:href="#a"/><linearGradient id="f" x1="1502.3" y1="932.9" x2="1596.19" y2="932.9" xlink:href="#a"/><linearGradient id="g" x1="1564.11" y1="2719.03" x2="1971.25" y2="2719.03" xlink:href="#a"/><linearGradient id="h" x1="1320.26" y1="1343.25" x2="1396.69" y2="1343.25" xlink:href="#a"/><linearGradient id="i" x1="1766.76" y1="1343.63" x2="1843.94" y2="1343.63" xlink:href="#a"/><linearGradient id="j" x1="1427.94" y1="1348.97" x2="1477.23" y2="1348.97" xlink:href="#a"/><linearGradient id="k" x1="1702.41" y1="1351.05" x2="1754.76" y2="1351.05" xlink:href="#a"/><linearGradient id="l" x1="1511.77" y1="1350.68" x2="1536.82" y2="1350.68" xlink:href="#a"/><linearGradient id="m" x1="1638.04" y1="1351.05" x2="1662.55" y2="1351.05" xlink:href="#a"/><linearGradient id="n" x1="1573.88" y1="1351.05" x2="1586.72" y2="1351.05" xlink:href="#a"/><linearGradient id="o" x1="1296.08" y1="1385.39" x2="1331.3" y2="1385.39" xlink:href="#a"/><linearGradient id="p" x1="1409.08" y1="1385.39" x2="1444.3" y2="1385.39" xlink:href="#a"/><linearGradient id="q" x1="1498.69" y1="1385.39" x2="1533.9" y2="1385.39" xlink:href="#a"/><linearGradient id="r" x1="1561.26" y1="1389.54" x2="1596.48" y2="1389.54" xlink:href="#a"/><linearGradient id="s" x1="1645.3" y1="1389.54" x2="1680.51" y2="1389.54" xlink:href="#a"/><linearGradient id="t" x1="1740.08" y1="1389.54" x2="1775.3" y2="1389.54" xlink:href="#a"/><linearGradient id="u" x1="1831.51" y1="1385.39" x2="1866.73" y2="1385.39" xlink:href="#a"/></defs><title>logo</title><text class="a" transform="translate(0 870.64)">K</text><path class="b" d="M414.27,2028q50.49-34,79.66-64.42T585.31,1866q62.22-67.12,74.59-89.29t12.37-32.08q0-12-13.76-21.64t-32.45-12.78q-20.79-3.15-20.79-12,0-9.42,17.16-9.42,3.63,0,11.44-.52,19.21-1,115.4-1,66,0,92,1.31t26,9.69q0,8.89-14.57,11-48.44,6.8-84.1,26.32T658,1827.23q-75,72.19-129.13,140,59.92,0,100.75,16.89t67.94,58.17q27.12,41.3,46.76,140,34.69,165.69,124,173,20,1.5,20,10.5,0,7.5-9.34,7.5l-47.75-1q-105.88,0-121.47,2-26.38-33.69-33.92-66.39t-20.52-114.64q-11.43-71.58-37.7-132.28t-81.87-60.68q-36.95,0-76.44,24.14t-45.75,35.81q-6.24,11.67-6.24,137.29,0,88.25,5.47,109t24,32.71q18.5,12,49.78,15,18.75,2.07,18.76,11.29,0,8.72-12.95,8.71l-6.22-.32q-14.5-.69-105.69-.68-109.85,0-124.34,2.08a84.54,84.54,0,0,1-10.87,1q-11.94,0-11.93-9.48,0-8.49,14.49-10.63,27.39-3.63,41.11-15.32t17.59-27q3.87-15.33,10.35-102.65t6.46-145.53q0-76.92-1.56-130.45t-6.22-116.69q-4.68-63.13-10.39-75.89A45.94,45.94,0,0,0,289,1722.87q-10.38-7-48.78-11.68-13-1.53-13-9.22,0-11.25,23.86-11.27l42-.51,184.12-2.08q14,0,14,8.58a7.54,7.54,0,0,1-4.68,7.25q-4.69,2.25-28.61,5.25-24.48,3.13-30.71,6t-12.48,13.57q-6.24,10.7-6.23,35.21Q408.56,1822.94,414.27,2028Z" transform="translate(-186.27 -1502.55)"/><path d="M1228.1,1666.45c182,0,344.85,139.43,344.85,351.24,0,228.84-155.4,371.46-351.24,371.46-204.36,0-353.37-155.4-353.37-355.5C868.34,1843.13,1003.52,1666.45,1228.1,1666.45Zm-21.29,39.38c-119.21,0-227.77,100.05-227.77,299.09,0,198,108.56,343.78,259.7,343.78,128.79,0,225.64-95.79,225.64-301.21C1464.38,1824,1346.24,1705.83,1206.81,1705.83Z" transform="translate(-186.27 -1502.55)"/><path d="M2046.57,1843.13c-18.09-70.25-47.89-139.43-147.94-139.43-83,0-111.76,60.67-111.76,116,0,73.44,46.83,110.69,135.17,156.46,127.72,66,183.07,115,183.07,216.06,0,111.76-96.86,196.91-234.16,196.91-63.86,0-119.21-18.09-162.85-35.12-8.51-29.81-21.28-102.18-28.73-159.66l33-8.51c21.29,71.31,68.12,163.91,178.82,163.91,76.63,0,123.46-53.22,123.46-122.4,0-82-43.64-114.95-137.3-166-111.76-60.67-174.56-111.76-174.56-210.75,0-94.73,78.77-184.13,219.26-184.13,59.61,0,118.15,16,140.5,20.22,4.25,38.32,8.51,80.89,17,150.08Z" transform="translate(-186.27 -1502.55)"/><path d="M2803.31,2373.18v-29.8c87.27-8.51,90.47-14.9,89.4-128.79l1.07-434.26c-87.28,194.78-227.78,499.19-265,592.85h-27.67c-36.19-96.85-156.46-389.55-237.36-582.2-18.09,372.52-19.15,456.61-19.15,476.83,1.06,59.61,27.67,68.12,100,75.57v29.8H2192.36v-29.8c61.73-6.38,87.28-19.16,95.79-76.63,6.39-46.83,7.45-85.15,35.13-473.64,4.26-55.35-6.39-73.44-100.05-82v-29.8h185.2L2643.65,2221l252.25-539.63h186.27v29.8c-91.54,10.65-103.25,20.22-101.12,94.73l4.26,408.71c4.26,113.89,7.45,119.21,101.12,128.79v29.8Z" transform="translate(-186.27 -1502.55)"/><path d="M3528.13,1666.45c182,0,344.86,139.43,344.86,351.24,0,228.84-155.4,371.46-351.24,371.46-204.36,0-353.37-155.4-353.37-355.5C3168.38,1843.13,3303.55,1666.45,3528.13,1666.45Zm-21.28,39.38c-119.21,0-227.78,100.05-227.78,299.09,0,198,108.57,343.78,259.71,343.78,128.78,0,225.64-95.79,225.64-301.21C3764.42,1824,3646.28,1705.83,3506.85,1705.83Z" transform="translate(-186.27 -1502.55)"/><path class="c" d="M1228.1,1666.45c182,0,344.85,139.43,344.85,351.24,0,228.84-155.4,371.46-351.24,371.46-204.36,0-353.37-155.4-353.37-355.5C868.34,1843.13,1003.52,1666.45,1228.1,1666.45Zm-21.29,39.38c-119.21,0-227.77,100.05-227.77,299.09,0,198,108.56,343.78,259.7,343.78,128.79,0,225.64-95.79,225.64-301.21C1464.38,1824,1346.24,1705.83,1206.81,1705.83Z" transform="translate(-186.27 -1502.55)"/><path class="c" d="M2046.57,1843.13c-18.09-70.25-47.89-139.43-147.94-139.43-83,0-111.76,60.67-111.76,116,0,73.44,46.83,110.69,135.17,156.46,127.72,66,183.07,115,183.07,216.06,0,111.76-96.86,196.91-234.16,196.91-63.86,0-119.21-18.09-162.85-35.12-8.51-29.81-21.28-102.18-28.73-159.66l33-8.51c21.29,71.31,68.12,163.91,178.82,163.91,76.63,0,123.46-53.22,123.46-122.4,0-82-43.64-114.95-137.3-166-111.76-60.67-174.56-111.76-174.56-210.75,0-94.73,78.77-184.13,219.26-184.13,59.61,0,118.15,16,140.5,20.22,4.25,38.32,8.51,80.89,17,150.08Z" transform="translate(-186.27 -1502.55)"/><path class="c" d="M2803.31,2373.18v-29.8c87.27-8.51,90.47-14.9,89.4-128.79l1.07-434.26c-87.28,194.78-227.78,499.19-265,592.85h-27.67c-36.19-96.85-156.46-389.55-237.36-582.2-18.09,372.52-19.15,456.61-19.15,476.83,1.06,59.61,27.67,68.12,100,75.57v29.8H2192.36v-29.8c61.73-6.38,87.28-19.16,95.79-76.63,6.39-46.83,7.45-85.15,35.13-473.64,4.26-55.35-6.39-73.44-100.05-82v-29.8h185.2L2643.65,2221l252.25-539.63h186.27v29.8c-91.54,10.65-103.25,20.22-101.12,94.73l4.26,408.71c4.26,113.89,7.45,119.21,101.12,128.79v29.8Z" transform="translate(-186.27 -1502.55)"/><path class="c" d="M3528.13,1666.45c182,0,344.86,139.43,344.86,351.24,0,228.84-155.4,371.46-351.24,371.46-204.36,0-353.37-155.4-353.37-355.5C3168.38,1843.13,3303.55,1666.45,3528.13,1666.45Zm-21.28,39.38c-119.21,0-227.78,100.05-227.78,299.09,0,198,108.57,343.78,259.71,343.78,128.78,0,225.64-95.79,225.64-301.21C3764.42,1824,3646.28,1705.83,3506.85,1705.83Z" transform="translate(-186.27 -1502.55)"/><line class="d" x1="1517.09" y1="743.62" x2="1581.4" y2="1122.19"/><path class="e" d="M1956.25,2813.31c0-104.14-84.43-188.57-188.57-188.57s-188.57,84.43-188.57,188.57Z" transform="translate(-186.27 -1502.55)"/><line class="f" x1="1393.15" y1="1308.57" x2="1323.8" y2="1377.93"/><line class="g" x1="1770.3" y1="1308.57" x2="1840.4" y2="1378.68"/><line class="h" x1="1473.15" y1="1320" x2="1432.01" y2="1377.93"/><line class="i" x1="1706.3" y1="1323.43" x2="1750.87" y2="1378.68"/><line class="j" x1="1532.01" y1="1323.43" x2="1516.58" y2="1377.93"/><line class="k" x1="1642.87" y1="1323.43" x2="1657.73" y2="1378.68"/><line class="l" x1="1581.73" y1="1323.43" x2="1578.87" y2="1378.68"/><circle class="m" cx="1313.69" cy="1385.39" r="12.61"/><circle class="n" cx="1426.69" cy="1385.39" r="12.61"/><circle class="o" cx="1516.3" cy="1385.39" r="12.61"/><circle class="p" cx="1578.87" cy="1389.54" r="12.61"/><circle class="q" cx="1662.9" cy="1389.54" r="12.61"/><circle class="r" cx="1757.69" cy="1389.54" r="12.61"/><circle class="s" cx="1849.12" cy="1385.39" r="12.61"/></svg>