<svg xmlns="http://www.w3.org/2000/svg" xmlns:xlink="http://www.w3.org/1999/xlink" viewBox="0 0 1360.29 385.28"><defs><style>.a{fill:url(#a);}.b{fill:url(#b);}.c{fill:url(#c);}.d{fill:url(#d);}.e,.f,.g,.h,.i,.j,.k,.l,.m,.n,.o,.p,.x{fill:none;}.e,.f,.g,.h,.i,.j,.k,.l,.m,.n,.o,.p,.q,.r,.s,.t,.u,.v,.w,.x{stroke-miterlimit:10;}.e{stroke:url(#b);}.f{stroke:url(#c);}.g{stroke:url(#h);}.h,.i{stroke-width:6.31px;}.h{stroke:url(#j);}.i{stroke:url(#k);}.j,.k,.l,.m,.n,.o,.p,.q,.r,.s,.t,.u,.v,.w{stroke-width:2.1px;}.j{stroke:url(#l);}.k{stroke:url(#m);}.l{stroke:url(#n);}.m{stroke:url(#o);}.n{stroke:url(#p);}.o{stroke:url(#q);}.p{stroke:url(#r);}.q{stroke:url(#s);}.r{stroke:url(#t);}.s{stroke:url(#u);}.t{stroke:url(#v);}.u{stroke:url(#w);}.v{stroke:url(#x);}.w{stroke:url(#y);}.x{stroke-width:0.89px;stroke:url(#z);}.y{fill:url(#aa);}.z{fill:url(#ab);}.aa{fill:url(#ac);}.ab{fill:url(#ae);}.ac{fill:url(#ah);}</style><linearGradient id="a" x1="917.25" y1="254.02" x2="1056.29" y2="254.02" gradientTransform="matrix(1, 0, 0, -1, -42.57, 331.33)" gradientUnits="userSpaceOnUse"><stop offset="0" stop-color="#be965d"/><stop offset="0.28" stop-color="#976f40"/><stop offset="0.43" stop-color="#c99b61"/><stop offset="0.56" stop-color="#f0be7b"/><stop offset="0.63" stop-color="#ffcb85"/><stop offset="0.71" stop-color="#eebc79"/><stop offset="0.87" stop-color="#c0935b"/><stop offset="1" stop-color="#976f40"/></linearGradient><linearGradient id="b" x1="1052.08" y1="254.85" x2="1683.91" y2="254.85" xlink:href="#a"/><linearGradient id="c" x1="1052.08" y1="254.85" x2="1683.91" y2="254.85" xlink:href="#a"/><linearGradient id="d" x1="1052.08" y1="254.93" x2="1683.91" y2="254.93" xlink:href="#a"/><linearGradient id="h" x1="1052.08" y1="254.92" x2="1683.91" y2="254.92" xlink:href="#a"/><linearGradient id="j" x1="1181.99" y1="225.8" x2="1201.73" y2="225.8" gradientTransform="matrix(1, 0, 0, -1, -519.86, 388.01)" xlink:href="#a"/><linearGradient id="k" x1="1198.38" y1="109.81" x2="1284.01" y2="109.81" xlink:href="#a"/><linearGradient id="l" x1="1143.71" y1="139.5" x2="1159.78" y2="139.5" gradientTransform="matrix(1, 0, 0, -1, -519.86, 388.01)" xlink:href="#a"/><linearGradient id="m" x1="1237.61" y1="139.42" x2="1253.83" y2="139.42" gradientTransform="matrix(1, 0, 0, -1, -519.86, 388.01)" xlink:href="#a"/><linearGradient id="n" x1="1166.35" y1="138.3" x2="1176.72" y2="138.3" gradientTransform="matrix(1, 0, 0, -1, -519.86, 388.01)" xlink:href="#a"/><linearGradient id="o" x1="1224.07" y1="137.86" x2="1235.08" y2="137.86" gradientTransform="matrix(1, 0, 0, -1, -519.86, 388.01)" xlink:href="#a"/><linearGradient id="p" x1="1183.98" y1="137.94" x2="1189.25" y2="137.94" gradientTransform="matrix(1, 0, 0, -1, -519.86, 388.01)" xlink:href="#a"/><linearGradient id="q" x1="1210.53" y1="137.86" x2="1215.69" y2="137.86" gradientTransform="matrix(1, 0, 0, -1, -519.86, 388.01)" xlink:href="#a"/><linearGradient id="r" x1="1197.04" y1="137.86" x2="1199.74" y2="137.86" gradientTransform="matrix(1, 0, 0, -1, -519.86, 388.01)" xlink:href="#a"/><linearGradient id="s" x1="1138.62" y1="130.64" x2="1146.03" y2="130.64" gradientTransform="matrix(1, 0, 0, -1, -519.86, 388.01)" xlink:href="#a"/><linearGradient id="t" x1="1162.39" y1="130.64" x2="1169.79" y2="130.64" gradientTransform="matrix(1, 0, 0, -1, -519.86, 388.01)" xlink:href="#a"/><linearGradient id="u" x1="1181.23" y1="130.64" x2="1188.63" y2="130.64" gradientTransform="matrix(1, 0, 0, -1, -519.86, 388.01)" xlink:href="#a"/><linearGradient id="v" x1="1194.39" y1="129.77" x2="1201.79" y2="129.77" gradientTransform="matrix(1, 0, 0, -1, -519.86, 388.01)" xlink:href="#a"/><linearGradient id="w" x1="1212.06" y1="129.77" x2="1219.46" y2="129.77" gradientTransform="matrix(1, 0, 0, -1, -519.86, 388.01)" xlink:href="#a"/><linearGradient id="x" x1="1231.99" y1="129.77" x2="1239.4" y2="129.77" gradientTransform="matrix(1, 0, 0, -1, -519.86, 388.01)" xlink:href="#a"/><linearGradient id="y" x1="1251.22" y1="130.64" x2="1258.62" y2="130.64" gradientTransform="matrix(1, 0, 0, -1, -519.86, 388.01)" xlink:href="#a"/><linearGradient id="z" x1="519.86" y1="96.64" x2="1880.14" y2="96.64" gradientTransform="matrix(1, 0, 0, -1, -519.86, 388.01)" xlink:href="#a"/><linearGradient id="aa" x1="1082.51" y1="-22.31" x2="1499.68" y2="-22.31" gradientTransform="matrix(1, 0, 0, -1, -42.57, 331.33)" gradientUnits="userSpaceOnUse"><stop offset="0" stop-color="#fff"/><stop offset="1" stop-color="#231f20"/></linearGradient><linearGradient id="ab" x1="1082.51" y1="-15.79" x2="1499.68" y2="-15.79" xlink:href="#aa"/><linearGradient id="ac" x1="1082.51" y1="-16.3" x2="1499.68" y2="-16.3" xlink:href="#aa"/><linearGradient id="ae" x1="1082.51" y1="-15.88" x2="1499.68" y2="-15.88" xlink:href="#aa"/><linearGradient id="ah" x1="1082.51" y1="-16.18" x2="1499.68" y2="-16.18" xlink:href="#aa"/></defs><title>logo-flat-golden</title><path class="a" d="M914.16,76.33a101,101,0,0,0,16.72-13.5q6.12-6.39,19.18-20.49T965.69,23.6q2.56-4.65,2.57-6.72,0-2.52-2.9-4.54a16.43,16.43,0,0,0-6.83-2.67c-2.91-.44-4.36-1.28-4.37-2.52s1.2-2,3.61-2c.51,0,1.31,0,2.4-.1q4.05-.22,24.26-.22,13.89,0,19.35.27c3.64.18,5.46.86,5.46,2s-1,2-3.06,2.3a51,51,0,0,0-17.65,5.52Q981,19,965.31,34.15a307.06,307.06,0,0,0-27.1,29.34q12.64,0,21.26,3.56A31.38,31.38,0,0,1,973.8,79.33q5.73,8.7,9.87,29.49,7.23,34.91,25.89,36.44c2.77.21,4.15,1,4.16,2.24,0,1.06-.65,1.59-2,1.59l-10.06-.21q-22.29,0-25.57.42a37.25,37.25,0,0,1-6.94-14q-1.59-6.87-4.32-24.15A116.45,116.45,0,0,0,957,83.33q-5.52-12.78-17.21-12.78-7.77,0-16.07,5.08t-9.62,7.54q-1.31,2.46-1.31,28.91,0,18.57,1.15,23a11.38,11.38,0,0,0,5,6.88,23.3,23.3,0,0,0,10.43,3.17c2.63.29,3.95,1.1,3.94,2.41s-.91,1.85-2.73,1.85l-1.32-.07q-3.06-.15-22.29-.14-23.17,0-26.23.43a17.57,17.57,0,0,1-2.29.22c-1.68,0-2.52-.65-2.52-2,0-1.16,1-1.89,3.06-2.18,3.86-.51,6.76-1.58,8.69-3.23a11,11,0,0,0,3.72-5.68q.81-3.23,2.18-21.58t1.37-30.6q0-16.19-.33-27.43t-1.31-24.54q-1-13.27-2.19-16a9.63,9.63,0,0,0-3.39-4.16q-2.17-1.47-10.27-2.46c-1.82-.22-2.73-.87-2.73-2q0-2.42,5-2.41l8.85-.11L927.33,5c2,0,2.95.6,2.95,1.82a1.61,1.61,0,0,1-1,1.54,29.13,29.13,0,0,1-6,1.12,28.78,28.78,0,0,0-6.44,1.25,6.74,6.74,0,0,0-2.63,2.84c-.87,1.5-1.3,4-1.31,7.38Q913,33.39,914.16,76.33Z" transform="translate(-519.86 0.01)"/><path class="b" d="M1085.15.5c38.28,0,72.52,29.32,72.52,73.86,0,48.12-32.68,78.11-73.86,78.11-43,0-74.3-32.67-74.3-74.75C1009.51,37.66,1037.93.5,1085.15.5Zm-4.47,8.28c-25.07,0-47.9,21-47.9,62.9,0,41.62,22.83,72.29,54.61,72.29,27.09,0,47.45-20.15,47.45-63.34C1134.84,33.63,1110,8.78,1080.68,8.78Z" transform="translate(-519.86 0.01)"/><path class="c" d="M1257.27,37.66c-3.84-14.78-10.07-29.33-31.11-29.33-17.46,0-23.5,12.75-23.5,24.39,0,15.45,9.85,23.28,28.42,32.9,26.86,13.88,38.5,24.17,38.5,45.44,0,23.5-20.37,41.4-49.24,41.4-13.43,0-25.07-3.8-34.24-7.38-1.79-6.27-4.48-21.49-6-33.58l6.94-1.79c4.48,15,14.33,34.47,37.6,34.47,16.12,0,26-11.19,26-25.74,0-17.23-9.18-24.17-28.88-34.91C1198.21,70.77,1185,60,1185,39.21c0-19.92,16.56-38.72,46.1-38.72,12.54,0,24.85,3.36,29.55,4.25.89,8.06,1.79,17,3.58,31.56Z" transform="translate(-519.86 0.01)"/><path class="d" d="M1416.43,149.12v-6.27c18.35-1.79,19-3.13,18.8-27.08l.22-91.32c-18.35,41-47.89,105-55.73,124.67h-5.82C1366.3,128.75,1341,67.2,1324,26.69c-3.8,78.33-4,96-4,100.27.22,12.53,5.81,14.32,21,15.89v6.27h-53v-6.27c13-1.34,18.35-4,20.14-16.12,1.35-9.84,1.57-17.9,7.39-99.59.89-11.64-1.34-15.45-21-17.24V3.64h38.94l49.47,113.47,53-113.47h39.17V9.9c-19.25,2.24-21.71,4.25-21.26,19.92l.89,86c.9,24,1.57,25.06,21.27,27.08v6.27Z" transform="translate(-519.86 0.01)"/><path class="b" d="M1568.82.5c38.28,0,72.52,29.32,72.52,73.86,0,48.12-32.68,78.11-73.86,78.11-43,0-74.31-32.67-74.31-74.75C1493.17,37.66,1521.6.5,1568.82.5Zm-4.47,8.28c-25.07,0-47.9,21-47.9,62.9,0,41.62,22.83,72.29,54.61,72.29,27.08,0,47.45-20.15,47.45-63.34C1618.51,33.63,1593.67,8.78,1564.35,8.78Z" transform="translate(-519.86 0.01)"/><path class="e" d="M1085.15.5c38.28,0,72.52,29.32,72.52,73.86,0,48.12-32.68,78.11-73.86,78.11-43,0-74.3-32.67-74.3-74.75C1009.51,37.66,1037.93.5,1085.15.5Zm-4.47,8.28c-25.07,0-47.9,21-47.9,62.9,0,41.62,22.83,72.29,54.61,72.29,27.09,0,47.45-20.15,47.45-63.34C1134.84,33.63,1110,8.78,1080.68,8.78Z" transform="translate(-519.86 0.01)"/><path class="f" d="M1257.27,37.66c-3.84-14.78-10.07-29.33-31.11-29.33-17.46,0-23.5,12.75-23.5,24.39,0,15.45,9.85,23.28,28.42,32.9,26.86,13.88,38.5,24.17,38.5,45.44,0,23.5-20.37,41.4-49.24,41.4-13.43,0-25.07-3.8-34.24-7.38-1.79-6.27-4.48-21.49-6-33.58l6.94-1.79c4.48,15,14.33,34.47,37.6,34.47,16.12,0,26-11.19,26-25.74,0-17.23-9.18-24.17-28.88-34.91C1198.21,70.77,1185,60,1185,39.21c0-19.92,16.56-38.72,46.1-38.72,12.54,0,24.85,3.36,29.55,4.25.89,8.06,1.79,17,3.58,31.56Z" transform="translate(-519.86 0.01)"/><path class="g" d="M1416.43,149.12v-6.27c18.35-1.79,19-3.13,18.8-27.08l.22-91.32c-18.35,41-47.89,105-55.73,124.67h-5.82C1366.3,128.75,1341,67.2,1324,26.69c-3.8,78.33-4,96-4,100.27.22,12.53,5.81,14.32,21,15.89v6.27h-53v-6.27c13-1.34,18.35-4,20.14-16.12,1.35-9.84,1.57-17.9,7.39-99.59.89-11.64-1.34-15.45-21-17.24V3.64h38.94l49.47,113.47,53-113.47h39.17V9.9c-19.25,2.24-21.71,4.25-21.26,19.92l.89,86c.9,24,1.57,25.06,21.27,27.08v6.27Z" transform="translate(-519.86 0.01)"/><path class="e" d="M1568.82.5c38.28,0,72.52,29.32,72.52,73.86,0,48.12-32.68,78.11-73.86,78.11-43,0-74.31-32.67-74.31-74.75C1493.17,37.66,1521.6.5,1568.82.5Zm-4.47,8.28c-25.07,0-47.9,21-47.9,62.9,0,41.62,22.83,72.29,54.61,72.29,27.08,0,47.45-20.15,47.45-63.34C1618.51,33.63,1593.67,8.78,1564.35,8.78Z" transform="translate(-519.86 0.01)"/><line class="h" x1="665.24" y1="122.41" x2="678.76" y2="202.02"/><path class="i" d="M1238.28,241.67a39.66,39.66,0,1,0-79.31-1.26q0,.63,0,1.26Z" transform="translate(-519.86 0.01)"/><line class="j" x1="639.18" y1="241.22" x2="624.59" y2="255.8"/><line class="k" x1="718.49" y1="241.22" x2="733.23" y2="255.96"/><line class="l" x1="656" y1="243.62" x2="647.35" y2="255.8"/><line class="m" x1="705.03" y1="244.34" x2="714.4" y2="255.96"/><line class="n" x1="668.38" y1="244.34" x2="665.13" y2="255.8"/><line class="o" x1="691.69" y1="244.34" x2="694.81" y2="255.96"/><line class="p" x1="678.83" y1="244.34" x2="678.23" y2="255.96"/><circle class="q" cx="622.47" cy="257.37" r="2.65"/><circle class="r" cx="646.23" cy="257.37" r="2.65"/><circle class="s" cx="665.07" cy="257.37" r="2.65"/><circle class="t" cx="678.23" cy="258.24" r="2.65"/><circle class="u" cx="695.9" cy="258.24" r="2.65"/><circle class="v" cx="715.83" cy="258.24" r="2.65"/><circle class="w" cx="735.06" cy="257.37" r="2.65"/><line class="x" y1="291.38" x2="1360.29" y2="291.38"/><path class="y" d="M1061.88,324.18c-6,.7-6.67,1.16-6.67,7.67v28.69c0,10.23-1.63,15.58-6.82,20.23a25.7,25.7,0,0,1-7.21,4.5l-1.24-2.33a13.7,13.7,0,0,0,7.75-10.23c.7-3.72.78-8.22.78-14.73V331.85c0-6.51-.7-7-7.06-7.67V322h20.47Z" transform="translate(-519.86 0.01)"/><path class="z" d="M1108.43,360.07c-.46,2-2.55,10-3.33,12.33h-37.67v-2.17c7.21-.54,7.75-1.24,7.75-7.6V332c0-6.9-.85-7.29-6.66-7.83V322h23.72c7.29,0,10.31-.08,11.24-.16.08,1.94.39,7.75.7,11.86l-2.33.39a26,26,0,0,0-2.32-5.89c-1.24-2.56-3-3.1-7.68-3.1h-7.42c-2.41,0-2.56.23-2.56,2.48v17.13h8.6c5.82,0,6.21-1.16,7.14-6.43h2.4v16h-2.4c-1-5.58-1.63-6.36-7.21-6.36h-8.53v15.4c0,5.43,1.7,5.89,5.58,6h7.21c4.73,0,5.51-.7,7.21-2.71a33,33,0,0,0,4.19-7.14Z" transform="translate(-519.86 0.01)"/><path class="aa" d="M1183.36,324.18c-5.42.77-6.2,1.39-8.29,7.75-2.56,7.75-8.76,27.45-13,41.32h-2.64c-4-12.09-9.23-27.05-13.26-38.53-4.5,13.34-9.07,26.59-13.1,38.53h-2.56c-3.88-13.33-8.3-27.83-12.48-41.4-2-6.28-2.87-7.13-7.91-7.67V322h19.15v2.17c-5.74.62-5.89,1.47-4.81,5.35,3,10.46,6.13,20.77,9.3,31.71,4.27-12.33,8.92-25.82,12.87-38.54h2.49c4.34,13.18,8.68,25.43,13.18,38.61,3.25-10.31,7.67-24.11,9.38-30.85,1.16-4.5.54-5.51-6-6.28V322h17.75Z" transform="translate(-519.86 0.01)"/><path class="z" d="M1227.09,360.07c-.47,2-2.56,10-3.34,12.33h-37.68v-2.17c7.21-.54,7.76-1.24,7.76-7.6V332c0-6.9-.86-7.29-6.67-7.83V322h23.72c7.29,0,10.31-.08,11.24-.16.08,1.94.39,7.75.7,11.86l-2.32.39a26.48,26.48,0,0,0-2.33-5.89c-1.24-2.56-3-3.1-7.68-3.1h-7.36c-2.4,0-2.56.23-2.56,2.48v17.13h8.61c5.81,0,6.2-1.16,7.13-6.43h2.4v16h-2.4c-1-5.58-1.63-6.36-7.21-6.36h-8.53v15.4c0,5.43,1.71,5.89,5.58,6h7.21c4.73,0,5.51-.7,7.21-2.71a32.78,32.78,0,0,0,4.19-7.14Z" transform="translate(-519.86 0.01)"/><path class="ab" d="M1271.43,359.53c-.46,2.4-2.79,10.47-3.57,12.87h-36v-2.17c7.06-.7,7.68-1.09,7.68-7.68V331.77c0-6.59-.78-7-7-7.59V322h20.78v2.17c-6.2.62-7.06.93-7.06,7.59v31.56c0,4.73.62,5.81,5,5.89l6.13.08c4,0,5.12-.47,6.9-2.4a26.31,26.31,0,0,0,4.73-8Z" transform="translate(-519.86 0.01)"/><path class="ab" d="M1315.43,359.53c-.47,2.4-2.79,10.47-3.57,12.87h-36v-2.17c7-.7,7.67-1.09,7.67-7.68V331.77c0-6.59-.77-7-7-7.59V322h20.77v2.17c-6.2.62-7,.93-7,7.59v31.56c0,4.73.62,5.81,5,5.89l6.12.08c4,0,5.12-.47,6.9-2.4a26.2,26.2,0,0,0,4.73-8Z" transform="translate(-519.86 0.01)"/><path class="z" d="M1360.82,360.07c-.47,2-2.56,10-3.33,12.33h-37.68v-2.17c7.21-.54,7.75-1.24,7.75-7.6V332c0-6.9-.85-7.29-6.67-7.83V322h23.73c7.28,0,10.31-.08,11.24-.16.08,1.94.38,7.75.7,11.86l-2.33.39a25.55,25.55,0,0,0-2.33-5.89c-1.24-2.56-3-3.1-7.67-3.1h-7.37c-2.4,0-2.56.23-2.56,2.48v17.13h8.61c5.81,0,6.2-1.16,7.13-6.43h2.39v16H1350c-1-5.58-1.63-6.36-7.21-6.36h-8.53v15.4c0,5.43,1.71,5.89,5.59,6h7.21c4.73,0,5.5-.7,7.21-2.71a33,33,0,0,0,4.18-7.14Z" transform="translate(-519.86 0.01)"/><path class="ac" d="M1412.22,373c-1,0-1.86-.08-2.87-.15-5.66-.39-8.68-1.86-12.09-6.67-2.87-4-5.66-8.84-8.15-12.79-1.55-2.48-2.55-3-6.51-3h-2.71v12.17c0,6.59.85,7,7,7.6v2.17h-20.7v-2.17c6.44-.7,7-1,7-7.6V331.7c0-6.59-.85-6.82-7-7.52V322H1386c5.66,0,9.46.69,12.41,2.63a11.59,11.59,0,0,1,5.27,10.24c0,6.66-4.26,10.85-10,13.33,1.39,2.4,4.73,7.6,7,11.09a70.92,70.92,0,0,0,6.13,8,11.15,11.15,0,0,0,5.66,3.57Zm-28.61-25.2c4,0,6.59-.62,8.53-2.24,3-2.25,4.26-5.35,4.26-9.54,0-8.3-5.5-11.32-11.47-11.32-2.25,0-3.57.31-4.11.78-.7.54-.93,1.31-.93,3.33v19Z" transform="translate(-519.86 0.01)"/><path class="ab" d="M1457.11,324.18c-5.43.62-6.36,1.47-9.46,6.43-3.49,5.66-6.36,11-10.16,17.91a8.18,8.18,0,0,0-1.16,4.58v9.53c0,6.44.7,6.9,7.9,7.6v2.17H1422v-2.17c7.06-.93,7.6-1.09,7.6-7.6v-10c0-1.55-.31-2.25-1.55-4.5-2.71-5-5.35-9.92-9.53-17.21-3-5.27-3.8-6.2-9.08-6.74V322h19.08v2.17c-5.59.77-5.28,1.78-3.88,4.42,3.26,6,6.9,12.94,10.16,18.76,2.79-5.2,7.21-13.65,9.38-17.91,1.78-3.88,1.55-4.65-4.58-5.27V322h17.53Z" transform="translate(-519.86 0.01)"/></svg>